<svg xmlns="http://www.w3.org/2000/svg" xmlns:xlink="http://www.w3.org/1999/xlink" viewBox="0 0 683 515.57653"><defs><linearGradient id="a" x1="-179.02717" y1="343.7863" x2="-435.78006" y2="-77.00269" gradientTransform="matrix(-1, 0, 0, 1, 109.99955, 0)" gradientUnits="userSpaceOnUse"><stop offset="0" stop-color="#57ffc2"/><stop offset="1" stop-color="#3fae5e"/></linearGradient><linearGradient id="b" x1="-200.78713" y1="310.1382" x2="-436.91573" y2="-76.8499" gradientTransform="matrix(-1, 0, 0, 1, 109.99955, 0)" gradientUnits="userSpaceOnUse"><stop offset="0" stop-color="#28c477"/><stop offset="1" stop-color="#3fae5e"/></linearGradient><linearGradient id="c" x1="596.97462" y1="404.59009" x2="285.3648" y2="-106.1032" gradientUnits="userSpaceOnUse"><stop offset="0" stop-color="#52ea55"/><stop offset="1" stop-color="#28c477"/></linearGradient></defs><path d="M683,515.57653c-57.36939-104.90917-161.8127-55.24882-233.21657-70.5233C332.22112,419.90464,392.0972,306.25616,220.1902,304.64906,78.71144,303.32636,38.45848,245.89521,84.50892,107.57812,120.69486-1.11019,0,.00052,0,.00052H683Z" fill="url(#a)"/><path d="M683,449.2232c-60.03119-89.83148-145.10332-28.95879-212.01758-43.27279C360.81194,382.38309,410.388,277.18954,249.29,275.68346,116.707,274.444,80.54082,212.38748,120.9138,112.91777,162.23056,11.12318,42.9446.00052,42.9446.00052H683Z" fill="url(#b)"/><path d="M163.161,100.67149c-30.90769,93.1043-39.25339,150.12317,81.90488,151.25587C392.28214,253.3038,345.67528,374.03181,461.821,389.848c61.95985,8.4373,166.32063-61.4256,221.179,20.66509V0H98.09815S194.06873,7.56719,163.161,100.67149ZM641.25858,279.60917c1.19795-18.21772,42.837.16348,19.34117,50.23123-15.756,33.5749-60.32954,25.21437-53.3992,2.0309C614.43677,307.66418,637.77918,332.52558,641.25858,279.60917ZM398.45213,161.33533c2.84778-71.418,65.191-74.18711,89.29759-51.335,10.8187,10.25552,1.08872,24.83576-11.98161,28.36506-19.52035,5.27126-42.24059-1.32776-51.81059,25.60485C416.0522,186.21785,396.92773,199.56159,398.45213,161.33533Zm-26.86439-54.59068a9.48067,9.48067,0,1,1,9.48067,9.48066A9.48068,9.48068,0,0,1,371.58774,106.74465Zm-22.71553,4.048a3.69968,3.69968,0,1,1,3.69959,3.69958A3.69951,3.69951,0,0,1,348.87221,110.79266Z" fill="url(#c)"/></svg>