<svg width="201" height="201" viewBox="0 0 201 201" fill="none" xmlns="http://www.w3.org/2000/svg">
<path d="M189.465 169.518C189.465 169.518 192.456 168.384 194.13 168.927L194.12 168.918V168.908C193.54 168.403 183.957 160.338 183.957 160.338C183.957 160.338 188.77 165.667 189.465 169.518Z" fill="#00853E"/>
<path d="M168.233 171.663L158.417 176.735L165.653 188.699C165.653 188.699 173.077 185.801 175.974 189.147C178.364 191.912 176.405 195.173 174.036 197.89C173.899 198.042 174.931 193.809 171.087 193.304C166.674 192.722 160.829 195.344 158.217 200.139C158.217 200.139 155.669 196.374 158.67 193.171C158.67 193.171 142.978 184.791 130.329 168.975L117.765 164.018C117.765 164.018 98.2602 169.595 94.3425 170.596C84.4637 173.122 81.6728 171.425 78.5555 168.708C75.5539 166.086 71.0148 162.044 71.0148 162.044C71.0148 162.044 74.9431 164.599 80.4196 163.503L104.411 158.765L100.788 157.287C100.788 157.287 77.9236 160.738 74.0584 161.024C70.1933 161.32 68.3818 159.585 66.1281 157.84C66.1281 157.84 57.9976 150.661 58.0502 150.69C62.8843 153.121 63.8953 152.768 67.5182 152.625L85.7381 151.338L81.6307 149.737C81.6307 149.737 64.2955 149.718 60.7569 149.718C55.7649 149.718 52.3526 145.837 51.0572 144.76L43.4744 138.344C43.4744 138.344 46.2653 140.585 54.6064 140.585L111.214 140.575C67.613 117.104 14.6807 88.5039 12.5323 87.3409C8.87779 85.3484 0.62094 81.5351 3.51716 76.0725L10.4365 62.6686C10.4365 62.6686 10.11 68.0644 14.3016 70.3906C17.7771 72.3259 112.383 129.316 112.383 129.316L111.52 125.627C111.52 125.627 13.9119 64.0795 10.3733 61.8964C6.84517 59.6942 -1.63284 54.937 1.80049 47.501L8.88832 34.2878C8.88832 34.2878 8.31961 39.6551 13.1852 42.9822L111.109 111.041L111.025 108.038C111.025 108.038 12.5428 35.8989 9.54128 33.7063C6.53975 31.5231 2.24282 27.3952 5.03372 20.8839L15.4496 0.139374C15.4496 0.139374 13.0378 6.99385 19.1567 12.3802L146.295 119.792C146.274 119.792 173.604 140.766 168.233 171.663ZM199.817 178.766C196.584 181.616 190.855 182.636 190.855 182.636C194.604 179.605 191.108 177.402 191.108 177.402C189.528 176.058 179.375 174.838 179.375 174.838L178.312 173.208L169.433 171.692C173.088 150.804 166.179 139.526 164.957 136.047C164.957 136.047 159.365 123.587 147.938 114.158C142.599 109.754 77.239 54.4318 73.9215 51.5432C70.8041 48.8262 66.286 46.195 67.7289 42.21L74.0374 29.3591C74.0584 29.3209 74.069 29.2923 74.069 29.2923L74.0374 29.3591C73.8162 29.8357 72.5208 33.1438 77.2495 37.5196L135.974 90.5917L136.385 87.3695C136.385 87.3695 74.3533 28.7108 72.247 26.5181C70.1406 24.3159 67.276 21.8277 68.8031 17.9858L75.6908 3.98131C75.7014 3.97178 75.7014 3.96224 75.7014 3.96224L75.6908 3.98131C75.5434 4.28638 73.7425 8.30945 78.8503 13.4289C78.8503 13.4289 137.891 73.4699 139.534 75.1954C145.927 81.8592 171.54 105.454 164.957 136.037C164.926 135.961 182.166 150.223 191.16 157.802C197.184 162.883 194.214 168.708 194.109 168.908C194.13 168.927 194.141 168.937 194.141 168.937C194.141 168.937 194.13 168.937 194.12 168.927L199.291 173.284C202.766 176.468 199.817 178.766 199.817 178.766Z" fill="#00853E"/>
<path d="M194.13 168.927C194.13 168.927 194.141 168.927 194.151 168.937C194.151 168.937 194.141 168.927 194.12 168.908V168.918L194.13 168.927Z" fill="#00853E"/>
<path d="M194.13 168.927C192.466 168.384 189.465 169.518 189.465 169.518C188.77 165.667 183.957 160.328 183.957 160.328C183.957 160.328 193.54 168.393 194.12 168.899C194.225 168.708 197.195 162.874 191.171 157.792C182.177 150.213 164.936 135.951 164.968 136.028C166.19 139.517 173.088 150.785 169.444 171.673L178.322 173.189L179.386 174.819C179.386 174.819 189.538 176.039 191.118 177.383C191.118 177.383 194.615 179.585 190.865 182.617C190.865 182.617 196.595 181.607 199.828 178.747C199.828 178.747 202.777 176.449 199.312 173.265L194.13 168.927Z" fill="#00853E"/>
<path d="M146.274 119.792L19.1357 12.3802C13.0167 6.98431 15.4285 0.139374 15.4285 0.139374L5.02319 20.8839C2.23229 27.3857 6.52922 31.5231 9.53075 33.7063C12.5323 35.8894 111.014 108.038 111.014 108.038L111.098 111.041L13.1747 42.9822C8.31961 39.6551 8.87779 34.2878 8.87779 34.2878L1.80049 47.501C-1.63284 54.937 6.84517 59.6942 10.3838 61.8773C13.9225 64.0604 111.53 125.608 111.53 125.608L112.394 129.297C112.394 129.297 17.7876 72.3068 14.3121 70.3715C10.1311 68.0454 10.447 62.6495 10.447 62.6495L3.51716 76.0629C0.62094 81.5255 8.87779 85.3389 12.5323 87.3313C14.6702 88.5039 67.6025 117.094 111.214 140.566L54.6064 140.575C46.2653 140.575 43.4744 138.335 43.4744 138.335L51.0572 144.751C52.3421 145.818 55.7649 149.708 60.7569 149.708C64.2955 149.708 81.6307 149.727 81.6307 149.727L85.7381 151.329L67.5182 152.616C63.8953 152.759 62.8843 153.111 58.0502 150.68C58.0081 150.661 66.1281 157.83 66.1281 157.83C68.3818 159.575 70.1933 161.31 74.0584 161.015C77.9236 160.729 100.788 157.277 100.788 157.277L104.411 158.755L80.4196 163.493C74.9431 164.59 71.0148 162.035 71.0148 162.035C71.0148 162.035 75.5539 166.077 78.5555 168.698C81.6623 171.415 84.4637 173.112 94.3425 170.586C98.2602 169.585 117.765 164.008 117.765 164.008L130.329 168.965C142.967 184.781 158.67 193.161 158.67 193.161C155.669 196.364 158.217 200.13 158.217 200.13C160.829 195.344 166.674 192.713 171.087 193.294C174.931 193.8 173.899 198.033 174.036 197.88C176.395 195.163 178.354 191.893 175.974 189.138C173.077 185.792 165.653 188.69 165.653 188.69L158.417 176.725L168.233 171.654C173.604 140.766 146.274 119.792 146.274 119.792Z" fill="#00853E"/>
<path d="M139.534 75.1954C137.891 73.4794 78.8503 13.4289 78.8503 13.4289C73.7319 8.29992 75.5329 4.28638 75.6908 3.98131L68.8031 17.9667C67.276 21.8087 70.1301 24.2969 72.247 26.4991C74.3533 28.7013 136.385 87.3504 136.385 87.3504L135.974 90.5727L77.239 37.5101C72.5103 33.1343 73.8057 29.8167 74.0268 29.3495L67.7183 42.2005C66.286 46.1854 70.7936 48.8166 73.911 51.5336C77.2285 54.4222 142.588 109.744 147.928 114.149C159.365 123.577 164.947 136.037 164.947 136.037C171.54 105.464 145.927 81.8592 139.534 75.1954Z" fill="#00853E"/>
<path d="M75.7014 3.96224L75.6908 3.98131C75.7014 3.97178 75.7014 3.96224 75.7014 3.96224Z" fill="#00853E"/>
<path d="M74.0268 29.34L74.0584 29.2733C74.0584 29.2828 74.0479 29.3019 74.0268 29.34Z" fill="#00853E"/>
</svg>
