<svg width="200" height="200" viewBox="0 0 200 200" fill="none" xmlns="http://www.w3.org/2000/svg">
<circle cx="100" cy="100" r="100" fill="#00853E"/>
<path d="M193 99.5C193 150.586 151.586 192 100.5 192C49.4137 192 8 150.586 8 99.5C8 48.4137 49.4137 7 100.5 7C151.586 7 193 48.4137 193 99.5Z" stroke="white" stroke-width="4"/>
<path d="M68.2375 142C60.1184 142 52.9942 140.255 46.8651 136.766C40.8155 133.277 36.1589 128.281 32.8954 121.779C29.6318 115.276 28 107.663 28 98.9405C28 90.2176 29.6318 82.6445 32.8954 76.2213C36.1589 69.7188 40.8155 64.7229 46.8651 61.2338C52.9942 57.7446 60.1184 56 68.2375 56C73.4911 56 78.4262 56.793 83.043 58.379C87.6598 59.8857 91.7591 62.106 95.3411 65.0401C96.3759 65.8331 97.0923 66.6657 97.4903 67.538C97.8883 68.4103 98.0873 69.4809 98.0873 70.7497C98.0873 72.4942 97.6097 73.9613 96.6545 75.1508C95.6993 76.3402 94.5451 76.935 93.1919 76.935C91.5999 76.935 89.9681 76.3799 88.2966 75.2697C84.8738 72.7321 81.6898 70.9876 78.7446 70.036C75.7994 69.0051 72.5359 68.4896 68.9539 68.4896C60.6756 68.4896 54.3872 71.0669 50.0888 76.2213C45.8701 81.3757 43.7607 88.9488 43.7607 98.9405C43.7607 109.012 45.8701 116.624 50.0888 121.779C54.3872 126.933 60.6756 129.51 68.9539 129.51C72.3767 129.51 75.5208 128.995 78.3864 127.964C81.3316 126.933 84.635 125.189 88.2966 122.73C89.0925 122.254 89.8885 121.858 90.6845 121.541C91.4805 121.224 92.3163 121.065 93.1919 121.065C94.5451 121.065 95.6993 121.66 96.6545 122.849C97.6097 124.039 98.0873 125.506 98.0873 127.25C98.0873 128.44 97.8883 129.51 97.4903 130.462C97.0923 131.334 96.3759 132.167 95.3411 132.96C91.7591 135.894 87.6598 138.154 83.043 139.74C78.4262 141.247 73.4911 142 68.2375 142Z" fill="white"/>
<path d="M139.165 142C133.036 142 127.225 141.207 121.733 139.621C116.32 137.956 111.902 135.735 108.48 132.96C106.649 131.612 105.733 129.709 105.733 127.25C105.733 125.585 106.211 124.158 107.166 122.968C108.201 121.699 109.395 121.065 110.748 121.065C112.181 121.065 113.813 121.62 115.644 122.73C119.066 125.189 122.648 126.973 126.39 128.083C130.131 129.193 134.27 129.748 138.807 129.748C144.618 129.748 149.075 128.757 152.18 126.775C155.284 124.713 156.836 121.739 156.836 117.853C156.836 114.84 155.364 112.54 152.419 110.954C149.553 109.289 144.737 107.703 137.971 106.196C130.966 104.69 125.275 102.945 120.897 100.963C116.519 98.9802 113.216 96.4426 110.987 93.3499C108.758 90.2573 107.644 86.3319 107.644 81.574C107.644 76.6574 109.037 72.2563 111.823 68.3707C114.609 64.485 118.469 61.4716 123.405 59.3306C128.419 57.1102 134.031 56 140.24 56C151.623 56 160.896 59.0134 168.06 65.0401C169.095 65.9124 169.811 66.7847 170.209 67.657C170.687 68.45 170.925 69.4809 170.925 70.7497C170.925 72.4149 170.408 73.882 169.373 75.1508C168.418 76.3402 167.264 76.935 165.911 76.935C165.115 76.935 164.358 76.816 163.642 76.5781C163.005 76.3402 162.13 75.9041 161.015 75.2697C157.752 72.8907 154.568 71.1462 151.463 70.036C148.439 68.8465 144.697 68.2517 140.24 68.2517C134.827 68.2517 130.529 69.3619 127.345 71.5823C124.24 73.7234 122.688 76.7367 122.688 80.6224C122.688 83.8737 124.081 86.3716 126.867 88.1162C129.653 89.8608 134.389 91.4864 141.076 92.9931C148.16 94.5791 153.891 96.3633 158.269 98.3458C162.727 100.249 166.11 102.707 168.418 105.721C170.806 108.734 172 112.501 172 117.021C172 121.937 170.607 126.299 167.821 130.105C165.115 133.832 161.254 136.766 156.239 138.907C151.304 140.969 145.613 142 139.165 142Z" fill="white"/>
</svg>
