<?xml version="1.0" standalone="no"?>
<!DOCTYPE svg PUBLIC "-//W3C//DTD SVG 20010904//EN"
 "http://www.w3.org/TR/2001/REC-SVG-20010904/DTD/svg10.dtd">
<svg version="1.0" xmlns="http://www.w3.org/2000/svg"
 width="700.000000pt" height="700.000000pt" viewBox="0 0 700.000000 700.000000"
 preserveAspectRatio="xMidYMid meet">
<metadata>
Created by potrace 1.11, written by Peter Selinger 2001-2013
</metadata>
<g transform="translate(0.000000,700.000000) scale(0.100000,-0.100000)"
fill="#000000" stroke="none">
<path d="M3215 6989 c-1004 -86 -1899 -579 -2513 -1387 -373 -489 -613 -1101
-684 -1737 -17 -154 -17 -585 0 -730 118 -999 599 -1842 1394 -2442 424 -320
969 -554 1498 -642 229 -38 322 -45 590 -45 402 0 720 48 1077 164 707 229
1338 692 1771 1297 349 488 560 1044 634 1668 16 139 16 595 0 730 -46 379
-128 692 -268 1020 -343 801 -1002 1466 -1803 1819 -526 231 -1132 333 -1696
285z m777 -197 c560 -85 1068 -297 1512 -631 787 -592 1275 -1511 1314 -2478
25 -605 -84 -1121 -345 -1645 -163 -326 -354 -590 -617 -854 -393 -393 -855
-673 -1369 -828 -1123 -340 -2309 -76 -3187 709 -501 448 -865 1074 -1013
1745 -178 801 -41 1669 374 2376 271 462 669 868 1123 1149 427 263 877 413
1436 479 19 2 170 3 335 1 242 -2 326 -7 437 -23z"/>
<path d="M3240 6673 c-771 -76 -1442 -392 -1967 -924 -184 -188 -275 -299
-406 -499 -468 -716 -627 -1587 -441 -2420 77 -341 221 -696 401 -983 454
-725 1173 -1235 2003 -1421 610 -136 1274 -84 1848 145 141 56 359 163 467
229 364 222 687 519 937 861 326 447 531 987 588 1548 15 154 12 504 -5 661
-83 723 -396 1371 -910 1885 -515 516 -1157 825 -1885 909 -123 15 -521 20
-630 9z m-560 -1658 c190 -34 411 -121 559 -219 163 -109 197 -161 189 -291
-8 -123 -72 -195 -173 -195 -61 0 -115 24 -250 112 -116 75 -210 118 -327 150
-72 20 -106 22 -268 22 -159 0 -196 -3 -265 -22 -318 -88 -501 -299 -580 -667
-29 -135 -40 -352 -27 -518 18 -222 49 -352 123 -503 95 -195 257 -324 484
-385 112 -31 392 -33 505 -5 106 27 230 82 359 160 146 88 186 106 246 106
101 0 165 -72 173 -195 8 -130 -26 -182 -191 -292 -158 -105 -356 -183 -552
-219 -138 -25 -460 -25 -594 0 -636 118 -1033 578 -1101 1275 -35 356 24 730
157 995 206 412 565 650 1073 710 79 9 369 -3 460 -19z m2545 1 c212 -38 388
-106 543 -209 106 -70 175 -138 198 -192 33 -80 9 -198 -52 -259 -36 -35 -63
-46 -118 -46 -56 0 -101 19 -206 88 -100 65 -231 131 -315 160 -116 39 -175
47 -360 47 -157 0 -190 -3 -258 -23 -112 -32 -193 -76 -257 -141 -74 -74 -102
-143 -102 -258 -1 -177 85 -265 348 -356 54 -19 160 -49 234 -67 556 -133 796
-234 965 -405 107 -109 162 -241 171 -410 33 -608 -571 -997 -1398 -900 -314
37 -576 126 -767 263 -88 62 -119 97 -136 156 -27 88 -16 159 33 224 40 55 79
74 142 70 62 -5 123 -31 252 -112 203 -126 434 -186 713 -186 367 0 578 111
624 328 33 156 -19 262 -164 339 -89 47 -271 106 -451 148 -516 118 -742 213
-910 380 -84 84 -145 198 -170 315 -23 107 -14 309 16 405 70 221 230 403 450
515 137 69 306 120 466 140 101 13 404 4 509 -14z"/>
</g>
</svg>
