<?xml version="1.0" standalone="no"?>
<!DOCTYPE svg PUBLIC "-//W3C//DTD SVG 20010904//EN"
 "http://www.w3.org/TR/2001/REC-SVG-20010904/DTD/svg10.dtd">
<svg version="1.0" xmlns="http://www.w3.org/2000/svg"
 width="700.000000pt" height="700.000000pt" viewBox="0 0 700.000000 700.000000"
 preserveAspectRatio="xMidYMid meet">
<metadata>
Created by potrace 1.11, written by Peter Selinger 2001-2013
</metadata>
<g transform="translate(0.000000,700.000000) scale(0.100000,-0.100000)"
fill="#000000" stroke="none">
<path d="M3260 6413 c-570 -55 -1089 -255 -1525 -586 -655 -499 -1068 -1246
-1146 -2071 -14 -157 -6 -519 15 -661 99 -657 385 -1226 847 -1684 217 -215
467 -394 749 -534 417 -209 836 -307 1305 -307 468 0 889 99 1306 307 726 362
1264 1002 1499 1782 134 445 157 956 65 1416 -86 427 -279 851 -548 1204 -478
627 -1211 1038 -2007 1126 -121 13 -458 18 -560 8z m564 -148 c525 -61 1009
-263 1426 -595 124 -98 308 -280 404 -400 172 -215 360 -546 451 -794 284
-774 211 -1634 -198 -2349 -380 -665 -1029 -1151 -1772 -1327 -445 -105 -890
-102 -1332 10 -482 123 -934 379 -1278 724 -421 423 -685 956 -782 1576 -25
164 -25 606 0 770 76 490 247 904 530 1283 457 613 1143 1008 1910 1101 155
19 483 19 641 1z"/>
<path d="M3303 6150 c-369 -29 -755 -144 -1075 -320 -751 -413 -1248 -1142
-1364 -2000 -23 -170 -23 -500 0 -670 143 -1057 866 -1909 1879 -2216 248 -75
476 -107 757 -108 386 0 704 65 1065 217 603 255 1116 768 1380 1381 99 229
167 473 201 726 23 169 23 499 0 670 -70 519 -274 983 -607 1380 -433 517
-1057 851 -1734 929 -134 16 -375 21 -502 11z m-1296 -1041 c10 -17 232 -211
493 -432 261 -221 590 -499 730 -617 140 -119 459 -388 707 -598 288 -243 473
-407 509 -450 173 -210 254 -410 254 -631 0 -58 -3 -115 -6 -127 -4 -14 -34
-36 -87 -64 -45 -24 -83 -44 -85 -45 -2 -2 25 -48 59 -104 l61 -102 46 8 c90
14 136 1 153 -44 11 -30 -1 -75 -31 -113 l-20 -25 0 24 c-1 87 -139 81 -233
-10 l-48 -47 -10 26 c-9 24 -7 48 7 85 3 10 -12 25 -48 47 -106 65 -215 156
-334 275 -119 121 -121 122 -219 160 -55 22 -107 38 -115 38 -8 -1 -114 -30
-235 -64 -180 -50 -235 -62 -301 -63 -92 -1 -107 6 -219 109 -48 44 -54 53
-32 45 51 -18 129 -11 342 32 190 38 207 43 180 53 -25 10 -70 6 -255 -21
-263 -39 -285 -40 -328 -16 -31 17 -194 153 -189 158 1 2 23 -4 48 -12 39 -13
68 -13 229 -1 159 12 181 15 157 25 -18 8 -99 12 -230 12 -174 0 -208 3 -242
19 -31 14 -149 106 -219 171 -5 5 13 2 40 -6 41 -12 143 -14 586 -12 l537 3
-237 128 c-1140 612 -1573 850 -1608 880 -67 58 -66 72 12 224 l67 132 17 -50
c10 -28 21 -54 26 -59 6 -6 1695 -1022 1755 -1056 3 -1 4 9 1 24 -3 22 -20 38
-80 76 -42 27 -459 289 -927 584 -467 294 -867 551 -888 571 -87 82 -87 125 5
293 l63 117 16 -49 c21 -64 25 -69 133 -144 160 -111 1610 -1118 1639 -1138
l27 -19 0 23 c0 20 -76 80 -457 360 -1315 962 -1389 1018 -1412 1053 -45 67
-38 101 69 315 l95 191 7 -56 c4 -31 15 -70 25 -86z m1065 -28 c15 -22 101
-109 789 -811 235 -239 456 -469 490 -510 197 -236 299 -478 299 -709 0 -95
-9 -181 -19 -181 -3 0 -19 25 -35 56 -35 66 -112 172 -170 233 -22 24 -185
165 -361 314 -627 532 -1031 873 -1082 916 -28 24 -59 59 -68 78 l-17 35 58
120 c32 66 59 116 60 111 1 -4 5 -20 8 -35 3 -14 18 -41 33 -59 30 -35 1048
-959 1058 -959 3 0 5 11 5 24 0 19 -80 100 -367 373 -834 791 -833 789 -833
837 0 12 28 79 62 150 l63 129 7 -46 c3 -25 13 -55 20 -66z m1808 -2419 c129
-108 245 -213 258 -232 19 -29 23 -45 20 -92 l-3 -57 58 -51 c65 -59 72 -87
31 -125 -24 -23 -120 -65 -146 -65 -6 0 -4 8 5 18 39 43 9 76 -89 97 -38 8
-79 15 -91 15 -13 0 -31 8 -41 18 -11 11 -49 24 -95 32 l-77 13 7 66 c12 101
7 269 -11 344 -9 37 -29 101 -45 142 -16 41 -26 75 -22 75 3 -1 112 -89 241
-198z"/>
</g>
</svg>
