<svg xmlns="http://www.w3.org/2000/svg" xmlns:xlink="http://www.w3.org/1999/xlink" viewBox="0 0 633.03027 578.89746">
  <defs>
    <linearGradient id="a" data-name="Gradiente sem nome 6" x1="20.56229" y1="61.14473" x2="190.58033" y2="175.13429" gradientUnits="userSpaceOnUse">
      <stop offset="0" stop-color="#00853e"/>
      <stop offset="1" stop-color="#28c44a"/>
    </linearGradient>
    <linearGradient id="b" data-name="Gradiente sem nome 11" x1="98.74709" y1="500.91372" x2="424.96864" y2="500.91372" gradientUnits="userSpaceOnUse">
      <stop offset="0" stop-color="#3bae7b"/>
      <stop offset="1" stop-color="#00853e"/>
    </linearGradient>
    <linearGradient id="c" data-name="Gradiente sem nome 9" x1="490.78372" y1="616.64459" x2="301.13457" y2="444.47725" gradientUnits="userSpaceOnUse">
      <stop offset="0" stop-color="#383838"/>
      <stop offset="1" stop-color="#a6b49b"/>
    </linearGradient>
    <linearGradient id="d" data-name="Gradiente sem nome 8" x1="149.80684" y1="433.25514" x2="293.96786" y2="604.19555" gradientUnits="userSpaceOnUse">
      <stop offset="0" stop-color="#d4d8ce"/>
      <stop offset="1" stop-color="#a6b49b"/>
    </linearGradient>
    <linearGradient id="e" x1="129.37641" y1="518.93814" x2="129.37641" y2="476.94927" xlink:href="#d"/>
    <linearGradient id="f" x1="317.53702" y1="384.03534" x2="162.71036" y2="610.85983" xlink:href="#d"/>
    <linearGradient id="g" data-name="Gradiente sem nome 5" x1="74.62431" y1="390.99037" x2="385.93383" y2="467.15005" gradientUnits="userSpaceOnUse">
      <stop offset="0" stop-color="#28c44a"/>
      <stop offset="1" stop-color="#00853e"/>
    </linearGradient>
    <linearGradient id="h" x1="226.2304" y1="398.16365" x2="226.2304" y2="394.56562" xlink:href="#d"/>
    <linearGradient id="i" x1="421.5813" y1="404.56406" x2="304.57581" y2="298.34411" xlink:href="#d"/>
    <linearGradient id="j" data-name="Gradiente sem nome 7" x1="341.97342" y1="256.45015" x2="144.326" y2="546.00802" gradientUnits="userSpaceOnUse">
      <stop offset="0" stop-color="#0d632c"/>
      <stop offset="1" stop-color="#3bae7b"/>
    </linearGradient>
    <linearGradient id="k" x1="326.49489" y1="336.07367" x2="326.49489" y2="375.39299" xlink:href="#d"/>
    <linearGradient id="l" x1="326.78687" y1="247.9028" x2="171.96015" y2="474.7274" xlink:href="#d"/>
    <linearGradient id="m" x1="505.41437" y1="127.62745" x2="562.10782" y2="184.3209" xlink:href="#j"/>
    <linearGradient id="n" x1="505.41441" y1="184.72259" x2="562.10777" y2="241.41595" xlink:href="#j"/>
    <linearGradient id="o" data-name="Gradiente sem nome 2" x1="482.26998" y1="21.67833" x2="587.58499" y2="126.99333" gradientTransform="translate(492.58984 -463.93546) rotate(78.06854)" gradientUnits="userSpaceOnUse">
      <stop offset="0" stop-color="#00853e"/>
      <stop offset="1" stop-color="#3bae7b"/>
    </linearGradient>
    <linearGradient id="p" x1="103.6029" y1="300.23155" x2="185.46145" y2="368.64486" xlink:href="#g"/>
    <linearGradient id="q" x1="113.81636" y1="287.34633" x2="196.05891" y2="356.08057" xlink:href="#g"/>
    <linearGradient id="r" x1="69.387" y1="108.78364" x2="127.46699" y2="182.59358" gradientTransform="matrix(1, 0, 0, 1, 0, 0)" xlink:href="#o"/>
    <linearGradient id="s" x1="384.88273" y1="532.84829" x2="533.03683" y2="532.84829" xlink:href="#a"/>
    <linearGradient id="t" x1="384.88266" y1="533.00796" x2="533.03701" y2="533.00796" xlink:href="#a"/>
    <linearGradient id="u" x1="586.26558" y1="533.00796" x2="410.14063" y2="533.00796" xlink:href="#a"/>
    <linearGradient id="v" x1="587.72915" y1="465.63948" x2="645.80957" y2="539.44999" gradientTransform="translate(408.0496 -502.0814) rotate(45)" xlink:href="#o"/>
  </defs>
  <g style="isolation: isolate">
    <g>
      <g>
        <path d="M287.4172,168.04408V119.37377a9.61043,9.61043,0,0,0-9.61073-9.61042H254.83154a9.5952,9.5952,0,0,1-8.92673-6.10775q-.76713-1.95285-1.60636-3.86851a9.59375,9.59375,0,0,1,1.98619-10.64787l16.24868-16.24866a9.61016,9.61016,0,0,0,0-13.59145L228.11841,24.88424a9.61038,9.61038,0,0,0-13.59145,0L198.27831,41.13289a9.59385,9.59385,0,0,1-10.64787,1.98622q-1.91566-.83863-3.8682-1.60639a9.59473,9.59473,0,0,1-6.10806-8.92674V9.61074A9.61064,9.61064,0,0,0,168.04379,0h-48.67A9.61071,9.61071,0,0,0,109.763,9.61074V32.586a9.59491,9.59491,0,0,1-6.10775,8.92674q-1.95285.76711-3.86819,1.60639a9.59387,9.59387,0,0,1-10.64788-1.98622l-16.249-16.249a9.61063,9.61063,0,0,0-13.59142,0L24.8836,59.29911a9.61067,9.61067,0,0,0,0,13.59145l16.249,16.24866a9.59321,9.59321,0,0,1,1.98591,10.64787q-.83865,1.91566-1.60608,3.86819a9.59517,9.59517,0,0,1-8.92673,6.10775H9.61042A9.61064,9.61064,0,0,0,0,119.37377v48.67a9.61044,9.61044,0,0,0,9.61042,9.61074H32.58567a9.59517,9.59517,0,0,1,8.92673,6.10775q.76716,1.95285,1.60608,3.86819a9.59329,9.59329,0,0,1-1.98623,10.64787l-16.24865,16.249a9.61068,9.61068,0,0,0,0,13.59146l34.41522,34.41487a9.61063,9.61063,0,0,0,13.59142,0L89.1389,246.285a9.59387,9.59387,0,0,1,10.64787-1.98623q1.91571.83865,3.86819,1.6064a9.59446,9.59446,0,0,1,6.10775,8.92642v22.97524a9.61091,9.61091,0,0,0,9.61074,9.61074h48.67a9.61092,9.61092,0,0,0,9.61074-9.61074V254.83186a9.59439,9.59439,0,0,1,6.10806-8.92673q1.95237-.76712,3.8682-1.6064A9.59435,9.59435,0,0,1,198.278,246.285l16.249,16.249a9.61067,9.61067,0,0,0,13.59145,0l34.4152-34.41519a9.6107,9.6107,0,0,0,0-13.59146l-16.249-16.24865a9.59375,9.59375,0,0,1-1.98619-10.64787q.83911-1.91567,1.60636-3.8682a9.5952,9.5952,0,0,1,8.92673-6.10774h22.97493A9.61071,9.61071,0,0,0,287.4172,168.04408Zm-86.69052-24.33531a57.01791,57.01791,0,1,1-57.01792-57.01793A57.01782,57.01782,0,0,1,200.72668,143.70877Z" fill="url(#a)" style="mix-blend-mode: multiply"/>
        <circle cx="146.84059" cy="143.70877" r="89.34076" fill="none" stroke="#fff" stroke-miterlimit="10" stroke-width="3.17847"/>
      </g>
      <ellipse cx="323.06938" cy="551.3898" rx="309.96105" ry="27.50766" fill="#d4d8ce" style="mix-blend-mode: multiply"/>
      <g>
        <g>
          <g>
            <path d="M305.77922,531.48678V470.34066H420.73333a4.23519,4.23519,0,0,0,4.23531-4.23531h0a4.23539,4.23539,0,0,0-4.23531-4.23531H103.91083a5.16391,5.16391,0,0,0-5.16374,5.16374v67.75956a5.164,5.164,0,0,0,5.16374,5.16406h316.8225a4.2354,4.2354,0,0,0,4.23531-4.23531h0a4.23539,4.23539,0,0,0-4.23531-4.23531Z" fill="url(#b)"/>
            <rect x="305.77922" y="470.34066" width="115.04437" height="61.1458" fill="url(#c)"/>
            <rect x="107.95321" y="470.34098" width="197.82601" height="61.1458" fill="url(#d)"/>
            <rect x="107.95321" y="470.34098" width="312.87039" height="5.50861" fill="#383838" opacity="0.4" style="mix-blend-mode: multiply"/>
            <g>
              <polygon points="141.718 523.059 130.813 513.24 119.908 523.059 119.908 470.341 141.718 470.341 141.718 523.059" fill="#383838" opacity="0.4" style="mix-blend-mode: multiply"/>
              <polygon points="140.534 521.268 129.376 511.002 118.218 521.268 118.218 470.341 140.534 470.341 140.534 521.268" fill="#0d632c"/>
              <polygon points="137.356 473.726 137.356 514.911 129.376 507.383 118.218 518.607 118.218 521.268 129.376 511.002 140.534 521.268 140.534 473.726 137.356 473.726" fill="url(#e)" style="mix-blend-mode: overlay"/>
              <rect x="118.21839" y="470.34098" width="22.31603" height="3.38507" fill="#383838" opacity="0.4" style="mix-blend-mode: multiply"/>
            </g>
            <g>
              <path d="M98.82369,465.94388H424.892a4.217,4.217,0,0,0-4.20257-4.07384H103.86732A5.16187,5.16187,0,0,0,98.82369,465.94388Z" fill="url(#f)" style="mix-blend-mode: overlay"/>
              <path d="M424.892,535.88356H98.82369a5.08232,5.08232,0,0,0,5.04328,4.07384H420.68914A4.23965,4.23965,0,0,0,424.892,535.88356Z" fill="#383838" opacity="0.4" style="mix-blend-mode: multiply"/>
            </g>
          </g>
          <g>
            <rect x="64.13197" y="394.28943" width="324.19686" height="67.58061" fill="url(#g)"/>
            <rect x="335.10282" y="394.28943" width="42.17415" height="67.58061" fill="#00853e"/>
            <rect x="102.32446" y="420.04361" width="218.90403" height="16.07193" fill="#00853e"/>
            <path d="M366.13072,428.07973a9.8798,9.8798,0,1,1-9.87963-9.88A9.8797,9.8797,0,0,1,366.13072,428.07973Z" fill="#28c44a"/>
            <rect x="64.13197" y="394.28943" width="324.19686" height="4.07384" fill="url(#h)" style="mix-blend-mode: overlay"/>
            <rect x="64.13197" y="457.28955" width="324.19686" height="4.58049" fill="#383838" opacity="0.4" style="mix-blend-mode: multiply"/>
          </g>
          <g>
            <g>
              <g>
                <rect x="314.98502" y="334.20841" width="115.04437" height="51.61039" fill="url(#i)"/>
                <path d="M429.93913,334.20841a4.23518,4.23518,0,0,0,4.23531-4.23531v-.00032a4.23519,4.23519,0,0,0-4.23531-4.23531H113.117a5.16371,5.16371,0,0,0-5.16374,5.16374v58.22416a5.16378,5.16378,0,0,0,5.16374,5.16406H429.93913a4.23531,4.23531,0,0,0,0-8.47062H314.98534v-51.6104Z" fill="url(#j)"/>
              </g>
              <polygon points="430.029 334.193 314.985 334.193 314.985 385.818 319.331 385.818 319.331 338.538 324.447 338.538 324.447 375.875 331.299 369.83 331.299 338.538 430.029 338.538 430.029 334.193" fill="#383838" opacity="0.4" style="mix-blend-mode: multiply"/>
              <g>
                <polygon points="329.92 368.136 323.069 374.181 323.069 334.193 329.92 334.193 329.92 368.136" fill="#3bae7b"/>
                <polygon points="328.564 335.674 328.564 367.097 323.069 371.946 323.069 374.197 329.92 368.152 329.92 335.674 328.564 335.674" fill="url(#k)" style="mix-blend-mode: overlay"/>
                <rect x="323.06914" y="334.19252" width="6.85119" height="1.48117" fill="#383838" opacity="0.4" style="mix-blend-mode: multiply"/>
              </g>
            </g>
            <g>
              <rect x="274.35338" y="325.73747" width="9.82532" height="68.55195" fill="#0d632c"/>
              <rect x="259.47592" y="325.73747" width="9.82497" height="68.55195" fill="#0d632c"/>
            </g>
            <path d="M108.07335,329.81132H434.14206a4.21741,4.21741,0,0,0-4.20293-4.07385H113.117A5.16213,5.16213,0,0,0,108.07335,329.81132Z" fill="url(#l)" style="mix-blend-mode: overlay"/>
            <path d="M434.14206,390.21558H108.07335a5.08263,5.08263,0,0,0,5.0436,4.07385H429.93913A4.23993,4.23993,0,0,0,434.14206,390.21558Z" fill="#383838" opacity="0.4" style="mix-blend-mode: multiply"/>
          </g>
        </g>
        <g>
          <g>
            <rect x="185.42967" y="62.78685" width="369.79836" height="239.14802" fill="#e9ebe6"/>
            <rect x="185.42967" y="62.78685" width="369.79836" height="14.71695" fill="#d4d8ce"/>
            <g>
              <rect x="228.98349" y="87.26401" width="283.8783" height="166.63443" fill="#00853e"/>
              <g>
                <path d="M258.55615,177.70947q-2.40015-2.40015-2.3999-7.0083V159.14941a2.04289,2.04289,0,0,1,.54395-1.48828,2.21424,2.21424,0,0,1,2.94384,0,2.04694,2.04694,0,0,1,.54395,1.48828v11.77588a6.26876,6.26876,0,0,0,1.376,4.39991,5.2215,5.2215,0,0,0,4.03223,1.48828,5.14764,5.14764,0,0,0,4-1.5044,6.28164,6.28164,0,0,0,1.376-4.38379V159.14941a2.04292,2.04292,0,0,1,.54394-1.48828,2.21425,2.21425,0,0,1,2.94385,0,2.045,2.045,0,0,1,.54395,1.48828v11.55176q0,4.57691-2.39991,6.99219-2.40013,2.41626-7.00781,2.416Q260.95556,180.10937,258.55615,177.70947Z" fill="#fff"/>
                <path d="M298.25146,157.66113a2.08145,2.08145,0,0,1,.52833,1.48828v18.7837a2.10317,2.10317,0,0,1-.54395,1.50439,1.85088,1.85088,0,0,1-1.4082.57568,1.8293,1.8293,0,0,1-1.56787-.73584l-11.68018-15.20019v13.856a2.18024,2.18024,0,0,1-.51221,1.50439,2.00959,2.00959,0,0,1-2.81592,0,2.18,2.18,0,0,1-.51171-1.50439v-18.7837a2.04292,2.04292,0,0,1,.54394-1.48828,1.91612,1.91612,0,0,1,1.43994-.56006,1.79948,1.79948,0,0,1,1.53614.73633l11.64794,15.13574V159.14941a2.08121,2.08121,0,0,1,.52784-1.48828,1.82518,1.82518,0,0,1,1.39209-.56006A1.86476,1.86476,0,0,1,298.25146,157.66113Z" fill="#fff"/>
                <path d="M309.51562,179.42139a2.01,2.01,0,0,1-.56-1.48828V160.65332h-5.82422q-1.91968,0-1.91992-1.6958,0-1.69629,1.91992-1.69629h15.77588q1.92039,0,1.92041,1.69629t-1.92041,1.6958H313.0835v17.27979a1.92624,1.92624,0,0,1-2.04786,2.04834A2.05178,2.05178,0,0,1,309.51562,179.42139Z" fill="#fff"/>
                <path d="M336.29883,178.70117a9.35761,9.35761,0,0,1-3.75977-4.03174,15.00432,15.00432,0,0,1,0-12.272,9.381,9.381,0,0,1,3.75977-4.01611,11.25878,11.25878,0,0,1,5.7124-1.40821,12.37051,12.37051,0,0,1,3.96777.624,10.32032,10.32032,0,0,1,3.2959,1.8081,1.841,1.841,0,0,1,.57617.67188,2.0899,2.0899,0,0,1,.16016.86426,1.83724,1.83724,0,0,1-.38428,1.18408,1.15332,1.15332,0,0,1-.92773.48,2.36343,2.36343,0,0,1-1.312-.44824,9.50725,9.50725,0,0,0-2.56006-1.42383,8.16342,8.16342,0,0,0-2.624-.3999,6.14968,6.14968,0,0,0-5.04,2.07959q-1.71242,2.0808-1.71192,6.1123,0,4.06421,1.71192,6.144a6.14851,6.14851,0,0,0,5.04,2.08008,7.53292,7.53292,0,0,0,2.54395-.416,12.20524,12.20524,0,0,0,2.64014-1.40821,4.46659,4.46659,0,0,1,.63965-.31982,1.79981,1.79981,0,0,1,.67236-.12842,1.1525,1.1525,0,0,1,.92773.48047,1.83584,1.83584,0,0,1,.38428,1.18359,2.11238,2.11238,0,0,1-.16016.84815,1.78994,1.78994,0,0,1-.57617.688,10.31087,10.31087,0,0,1-3.2959,1.8081,12.37051,12.37051,0,0,1-3.96777.624A11.25383,11.25383,0,0,1,336.29883,178.70117Z" fill="#fff"/>
                <path d="M356.36328,179.45312a10.23273,10.23273,0,0,1-3.56787-1.77587,1.94272,1.94272,0,0,1-.33594-2.70411,1.18364,1.18364,0,0,1,.94385-.49609,2.60576,2.60576,0,0,1,1.312.44824,9.57493,9.57493,0,0,0,2.87988,1.43994,11.62354,11.62354,0,0,0,3.32813.44825,6.54986,6.54986,0,0,0,3.584-.81641,2.67,2.67,0,0,0,1.24805-2.38379,2.05112,2.05112,0,0,0-1.168-1.87207,15.51157,15.51157,0,0,0-3.88818-1.26416,22.95628,22.95628,0,0,1-4.57568-1.40771,6.45624,6.45624,0,0,1-2.65625-2.04786,5.29614,5.29614,0,0,1-.896-3.168,5.95917,5.95917,0,0,1,1.12012-3.55225,7.382,7.382,0,0,1,3.12011-2.44775,11.04383,11.04383,0,0,1,4.49561-.88038,11.16159,11.16159,0,0,1,7.45605,2.43213,2.41092,2.41092,0,0,1,.59229.688,1.82645,1.82645,0,0,1,.17578.84815,1.8047,1.8047,0,0,1-.3999,1.168,1.18429,1.18429,0,0,1-.94386.4961,1.76678,1.76678,0,0,1-.59228-.09619,4.692,4.692,0,0,1-.71972-.352,10.82435,10.82435,0,0,0-2.54444-1.42383,8.62961,8.62961,0,0,0-3.02392-.46387,5.93248,5.93248,0,0,0-3.43994.87988,2.81742,2.81742,0,0,0-1.26367,2.44776,2.24416,2.24416,0,0,0,1.11962,2.01611,13.09808,13.09808,0,0,0,3.80811,1.312,25.6558,25.6558,0,0,1,4.624,1.42383,6.86568,6.86568,0,0,1,2.72022,2,4.81219,4.81219,0,0,1,.94385,3.04,5.80556,5.80556,0,0,1-1.104,3.50391,7.19149,7.19149,0,0,1-3.104,2.36816,11.68339,11.68339,0,0,1-4.5918.84814A16.16714,16.16714,0,0,1,356.36328,179.45312Z" fill="#fff"/>
                <path d="M377.99463,178.70117a9.35767,9.35767,0,0,1-3.75977-4.03174,15.00432,15.00432,0,0,1,0-12.272,9.38107,9.38107,0,0,1,3.75977-4.01611,11.25878,11.25878,0,0,1,5.7124-1.40821,12.37056,12.37056,0,0,1,3.96777.624,10.32032,10.32032,0,0,1,3.2959,1.8081,1.84109,1.84109,0,0,1,.57618.67188,2.09007,2.09007,0,0,1,.16015.86426,1.83724,1.83724,0,0,1-.38428,1.18408,1.15332,1.15332,0,0,1-.92773.48,2.36343,2.36343,0,0,1-1.312-.44824,9.50725,9.50725,0,0,0-2.56006-1.42383,8.1634,8.1634,0,0,0-2.624-.3999,6.14969,6.14969,0,0,0-5.04,2.07959q-1.7124,2.0808-1.71192,6.1123,0,4.06421,1.71192,6.144a6.14852,6.14852,0,0,0,5.04,2.08008,7.53291,7.53291,0,0,0,2.54394-.416,12.20524,12.20524,0,0,0,2.64014-1.40821,4.46659,4.46659,0,0,1,.63965-.31982,1.79985,1.79985,0,0,1,.67236-.12842,1.1525,1.1525,0,0,1,.92773.48047,1.83584,1.83584,0,0,1,.38428,1.18359,2.11256,2.11256,0,0,1-.16015.84815,1.79006,1.79006,0,0,1-.57618.688,10.31087,10.31087,0,0,1-3.2959,1.8081,12.37056,12.37056,0,0,1-3.96777.624A11.25383,11.25383,0,0,1,377.99463,178.70117Z" fill="#fff"/>
                <path d="M395.85059,179.30908a1.911,1.911,0,0,1-.52784-1.43994V159.21338a1.91248,1.91248,0,0,1,.52784-1.43994,2.003,2.003,0,0,1,1.45605-.51221H408.8584a2.23162,2.23162,0,0,1,1.44043.416,1.43946,1.43946,0,0,1,.51172,1.18408,1.5233,1.5233,0,0,1-.51172,1.23193,2.17079,2.17079,0,0,1-1.44043.43213h-9.50391v6.208h8.86426a2.22828,2.22828,0,0,1,1.43994.416,1.47692,1.47692,0,0,1,.51172,1.21582,1.43885,1.43885,0,0,1-.51172,1.18409,2.22828,2.22828,0,0,1-1.43994.416h-8.86426v6.5918h9.50391a2.17079,2.17079,0,0,1,1.44043.43213,1.52463,1.52463,0,0,1,.51172,1.23193,1.43881,1.43881,0,0,1-.51172,1.18408,2.22876,2.22876,0,0,1-1.44043.416H397.30664A2.00091,2.00091,0,0,1,395.85059,179.30908Z" fill="#fff"/>
                <path d="M427.21,178.70117a9.35759,9.35759,0,0,1-3.75976-4.03174,15.00421,15.00421,0,0,1,0-12.272,9.381,9.381,0,0,1,3.75976-4.01611,11.25881,11.25881,0,0,1,5.7124-1.40821,12.37062,12.37062,0,0,1,3.96778.624,10.32054,10.32054,0,0,1,3.2959,1.8081,1.84115,1.84115,0,0,1,.57617.67188,2.09007,2.09007,0,0,1,.16015.86426,1.83723,1.83723,0,0,1-.38427,1.18408,1.15332,1.15332,0,0,1-.92774.48,2.36345,2.36345,0,0,1-1.312-.44824,9.50725,9.50725,0,0,0-2.56006-1.42383,8.1634,8.1634,0,0,0-2.624-.3999,6.14969,6.14969,0,0,0-5.04,2.07959q-1.7124,2.0808-1.71192,6.1123,0,4.06421,1.71192,6.144a6.14852,6.14852,0,0,0,5.04,2.08008,7.53291,7.53291,0,0,0,2.54394-.416,12.20524,12.20524,0,0,0,2.64014-1.40821,4.46659,4.46659,0,0,1,.63965-.31982,1.79985,1.79985,0,0,1,.67236-.12842,1.1525,1.1525,0,0,1,.92774.48047,1.83583,1.83583,0,0,1,.38427,1.18359,2.11256,2.11256,0,0,1-.16015.84815,1.79012,1.79012,0,0,1-.57617.688,10.31108,10.31108,0,0,1-3.2959,1.8081,12.37062,12.37062,0,0,1-3.96778.624A11.25386,11.25386,0,0,1,427.21,178.70117Z" fill="#fff"/>
                <path d="M444.74609,179.51709a1.79944,1.79944,0,0,1-.56-1.42383v-19.104a1.75256,1.75256,0,0,1,.56-1.40821,2.11039,2.11039,0,0,1,1.42383-.48,2.1734,2.1734,0,0,1,1.43994.48,1.7284,1.7284,0,0,1,.57618,1.40821v19.104a1.77405,1.77405,0,0,1-.57618,1.42383,2.12846,2.12846,0,0,1-1.43994.49609A2.06738,2.06738,0,0,1,444.74609,179.51709Z" fill="#fff"/>
                <path d="M466.1377,164.36523a1.80049,1.80049,0,0,1,.54443,1.376v12.416a1.73578,1.73578,0,0,1-.56006,1.34423,2.07731,2.07731,0,0,1-1.45605.51172,1.92808,1.92808,0,0,1-1.376-.48,1.70872,1.70872,0,0,1-.51221-1.312v-.7998a5.09451,5.09451,0,0,1-1.98388,1.96777,5.73734,5.73734,0,0,1-2.81592.688q-5.76049,0-5.76026-6.46387v-7.87207a1.80017,1.80017,0,0,1,.544-1.376,2.01786,2.01786,0,0,1,1.43994-.51171,2.06361,2.06361,0,0,1,1.47217.51171,1.80016,1.80016,0,0,1,.54394,1.376v7.9043a3.7767,3.7767,0,0,0,.67188,2.46386,2.60782,2.60782,0,0,0,2.1123.79981,3.44347,3.44347,0,0,0,2.67188-1.104,4.17407,4.17407,0,0,0,1.0083-2.92774v-7.13623a1.79841,1.79841,0,0,1,.54394-1.376,2.01628,2.01628,0,0,1,1.44-.51171A2.06319,2.06319,0,0,1,466.1377,164.36523Z" fill="#fff"/>
                <path d="M483.44971,164.78125a6.67635,6.67635,0,0,1,2.44824,2.81592,9.69708,9.69708,0,0,1,.87988,4.25635,10.011,10.011,0,0,1-.87988,4.30371,6.7942,6.7942,0,0,1-2.46436,2.896,6.48073,6.48073,0,0,1-3.60009,1.02393,6.13122,6.13122,0,0,1-3.02393-.73584,5.00412,5.00412,0,0,1-2.03174-2.04785v.7998a1.79973,1.79973,0,0,1-.54394,1.376,2.01764,2.01764,0,0,1-1.43994.51221,1.959,1.959,0,0,1-1.42432-.51221,1.82681,1.82681,0,0,1-.52783-1.376V158.95752a1.73486,1.73486,0,0,1,.56006-1.34424,2.07516,2.07516,0,0,1,1.45605-.51221,2.09982,2.09982,0,0,1,1.43994.48,1.66211,1.66211,0,0,1,.54395,1.312v7.55224a4.78628,4.78628,0,0,1,2.01611-1.96826,6.31093,6.31093,0,0,1,2.97559-.688A6.62115,6.62115,0,0,1,483.44971,164.78125Zm-1.728,10.84814a5.97827,5.97827,0,0,0,1.05615-3.77587,5.71094,5.71094,0,0,0-1.04-3.68018,4.04449,4.04449,0,0,0-5.91992.01611,5.831,5.831,0,0,0-1.04,3.728,5.89971,5.89971,0,0,0,1.04,3.74365,3.94506,3.94506,0,0,0,5.90381-.03174Z" fill="#fff"/>
              </g>
              <g>
                <rect x="228.38954" y="269.3492" width="110.56718" height="8.74969" fill="#d4d8ce"/>
                <rect x="228.38954" y="282.49408" width="165.90592" height="5.11289" fill="#d4d8ce"/>
              </g>
              <path d="M480.42243,273.72405a4.98159,4.98159,0,1,1-4.98161-4.9813A4.98159,4.98159,0,0,1,480.42243,273.72405Z" fill="#d4d8ce"/>
              <path d="M494.62,273.72405a4.98162,4.98162,0,1,1-4.98162-4.9813A4.9816,4.9816,0,0,1,494.62,273.72405Z" fill="#d4d8ce"/>
              <path d="M508.81761,273.72405a4.98162,4.98162,0,1,1-4.98162-4.9813A4.9816,4.9816,0,0,1,508.81761,273.72405Z" fill="#d4d8ce"/>
            </g>
            <g>
              <circle cx="195.86871" cy="70.14532" r="4.48832" fill="#00853e"/>
              <path d="M212.139,70.14532A4.48832,4.48832,0,1,1,207.6507,65.657,4.48844,4.48844,0,0,1,212.139,70.14532Z" fill="#3bae7b"/>
              <circle cx="219.43261" cy="70.14532" r="4.48832" fill="#0d632c"/>
            </g>
          </g>
          <g>
            <g>
              <g opacity="0.1" style="mix-blend-mode: multiply">
                <path d="M558.40649,157.79256a26.00544,26.00544,0,1,1-26.00524-26.00528A26.00518,26.00518,0,0,1,558.40649,157.79256Z"/>
              </g>
              <path d="M558.40649,154.61409a26.00544,26.00544,0,1,1-26.00524-26.00528A26.00518,26.00518,0,0,1,558.40649,154.61409Z" fill="url(#m)"/>
            </g>
            <g>
              <polygon points="550.363 151.507 532.401 146.887 514.439 151.507 532.401 156.127 550.363 151.507" fill="#fff"/>
              <path d="M523.7046,155.73387v6.51363c8.69665,4.00456,17.39295,0,17.39295,0v-6.51363l-8.6963,2.23669Z" fill="#fff"/>
              <path d="M547.0263,157.69149a.57158.57158,0,0,0-.36457-.53176V153.283l-.41824.1122v3.76458a.56479.56479,0,0,0-.0598,1.02982l-.30513,2.30789a1.26183,1.26183,0,0,0,1.14774,0l-.30481-2.30789A.56736.56736,0,0,0,547.0263,157.69149Z" fill="#fff"/>
            </g>
          </g>
          <g>
            <g>
              <g opacity="0.1" style="mix-blend-mode: multiply">
                <path d="M558.40649,214.88772a26.00544,26.00544,0,1,1-26.00524-26.00528A26.00539,26.00539,0,0,1,558.40649,214.88772Z"/>
              </g>
              <path d="M558.40649,211.70925A26.00544,26.00544,0,1,1,532.40125,185.704,26.00539,26.00539,0,0,1,558.40649,211.70925Z" fill="url(#n)"/>
            </g>
            <g>
              <path d="M541.17538,204.49254c-.51937-1.25295-.0426-3.20835-.98688-4.15267-.94436-.94464-2.89976-.46787-4.153-.98755-1.209-.50125-2.244-2.2386-3.63422-2.2386-1.39062,0-2.42553,1.73735-3.63462,2.2386-1.25295.51968-3.208.04259-4.15262.98691-.94437.94464-.4676,2.9-.98728,4.15331-.50156,1.20877-2.2386,2.244-2.2386,3.63426s1.737,2.42517,2.23828,3.63426c.51968,1.25327.04291,3.20835.98723,4.153.94437.94432,2.9.46755,4.153.98723,1.20909.50125,2.244,2.23828,3.63462,2.23828,1.39022,0,2.42518-1.737,3.6339-2.23828,1.25328-.51968,3.20867-.04259,4.153-.98691.94437-.94464.4676-2.9.98724-4.15331.50156-1.20909,2.23859-2.244,2.23859-3.63426S541.67694,205.70163,541.17538,204.49254Zm-8.77413,10.02521a6.391,6.391,0,1,1,6.39059-6.391A6.39087,6.39087,0,0,1,532.40125,214.51775Z" fill="#fff"/>
              <path d="M532.40125,220.98752c-1.30416,0-2.3413-1.299-3.42993-2.11749v8.82565l3.42957-2.6394,3.43021,2.6394v-8.826C534.74215,219.68816,533.705,220.98752,532.40125,220.98752Z" fill="#fff"/>
            </g>
          </g>
          <g>
            <g>
              <g opacity="0.1" style="mix-blend-mode: multiply">
                <circle cx="532.40115" cy="74.98796" r="48.30804" transform="translate(348.96387 580.38379) rotate(-78.06854)"/>
              </g>
              <circle cx="532.40115" cy="71.80949" r="48.30804" transform="translate(352.07367 577.86244) rotate(-78.06854)" fill="url(#o)"/>
            </g>
            <g>
              <path d="M549.00776,57.88978c0,10.43587-7.43508,18.89568-16.60651,18.89568-9.17183,0-16.6069-8.45981-16.6069-18.89568s7.43507-18.89568,16.6069-18.89568C541.57268,38.9941,549.00776,47.45391,549.00776,57.88978Z" fill="none" stroke="#fff" stroke-miterlimit="10" stroke-width="3.17847"/>
              <path d="M564.5136,94.93929c0-7.63405-6.68527-11.09731-16.55251-14.558-4.10277,4.28172-9.55416,3.7382-15.55984,3.7382-6.00607,0-11.45715.54352-15.55992-3.73852-9.86755,3.46072-16.55283,6.9243-16.55283,14.55835" fill="none" stroke="#fff" stroke-miterlimit="10" stroke-width="3.17847"/>
            </g>
          </g>
        </g>
        <g>
          <path d="M151.98105,252.45183s4.21242,13.57428,1.31874,22.822a67.41257,67.41257,0,0,1-6.45928,14.82978l2.16644.99709s13.77453-8.30153,16.93905-17.77209c3.16477-9.47057,0-22.90024,0-22.90024Z" fill="#dcdfd7"/>
          <path d="M152.89486,158.98226c-9.30116,4.88722-3.004,12.15224-10.46257,23.05535-3.16544,4.62721-2.71155,9.92572,1.27615,14.10223,6.84515,7.16872-.42242,8.33267,1.8877,15.14763,2.42358,7.14965,20.264,6.20882,23.87252-2.30248C173.58415,199.27794,164.15681,153.06491,152.89486,158.98226Z" fill="#0d632c"/>
          <path d="M163.67908,291.61184c-29.096,10.40631-41.49809,29.81086-39.94315,50.86822,1.55487,21.05736,8.48139,47.28958,7.07746,53.84613,0,0-10.145,15.69464-6.96656,18.4758s16.41139-19.56729,17.87157-24.58641c3.18578-10.953-4.76039-46.94885,3.18578-55.28248s42.808-33.30146,75.04048-35.12081C219.94466,299.81229,195.96248,280.06509,163.67908,291.61184Z" fill="url(#p)"/>
          <path d="M141.87161,367.51209c-.821-13.28886-1.62929-27.68987,3.03257-32.579,7.94618-8.33363,42.808-33.30146,75.04048-35.12081,0,0-23.98218-19.7472-56.26558-8.20045a75.82517,75.82517,0,0,0-28.0366,17.26449c-13.68843,14.41245,4.94312,34.015,6.22881,58.63576Z" fill="#383838" opacity="0.4" style="mix-blend-mode: multiply"/>
          <path d="M219.94466,299.81229c0,27.96226-14.61142,25.92518-39.26363,25.92518s-12.6948,47.53655,0,60.08134c0,0,7.5298,8.72044-2.80023,26.99664s-3.57578-18.526-3.57578-18.526-33.74421-33.45466-33.95622-64.47811c-.21232-31.02345,40.33223-40.04172,40.33223-40.04172S219.94466,281.6912,219.94466,299.81229Z" fill="url(#q)"/>
          <path d="M164.50008,209.94139c-18.99358,6.13063-17.65957,30.11981-15.18,41.96406,0,0,10.18477,3.6368,17.43486-6.32007C172.43036,237.79114,169.51285,208.32323,164.50008,209.94139Z" fill="#60bd94"/>
          <path d="M164.50008,209.94139c-9.09964,5.25909-13.5905,25.03871-.821,48.83686a34.19584,34.19584,0,0,1,0,32.83359s23.32266-7.7027,56.26558,8.20045c0-12.76314-1.09657-32.00687-5.911-50.09808-3.5993-13.526-9.277-26.40736-18.12776-35.45392-5.28071-5.39767-12.28192-8.53641-20.35047-6.6805Z" fill="#60bd94"/>
          <path d="M160.86487,191.43475s4.36245,7.37119,3.63521,18.76187a5.04943,5.04943,0,0,0,.822,5.8754c1.14171.14271,2.60222-3.2681,6.87885-4.11167,8.49732-1.676,1.0241-24.30289,1.0241-24.30289Z" fill="#dcdfd7"/>
          <path d="M146.79378,174.73094c-.85306,7.06828,3.10918,20.54436,7.655,24.32387,8.67531,7.2129,18.01365-4.51692,19.841-13.08162,0,0,4.48355,2.77957,6.165-6.58484.94559-5.26736-1.26249-6.72214-3.09869-6.41129a4.62551,4.62551,0,0,0-2.50591,1.81078s-3.24172-12.465-13.42871-8.82216C151.2341,169.60884,148.87536,157.48171,146.79378,174.73094Z" fill="#dcdfd7"/>
          <path d="M155.96653,159.3961c-.50506-.01081-14.37622,2.06728-11.98,17.86618,0,0,8.94485,4.72511,25.0778,0C169.06436,177.26228,169.54368,159.6917,155.96653,159.3961Z" fill="#0d632c"/>
          <g>
            <polygon points="156.217 287.137 208.625 286.869 173.045 302.087 120.637 302.355 156.217 287.137" fill="#a6b49b"/>
            <g>
              <polygon points="173.045 302.087 120.517 302.087 94.984 266.276 97.695 264.596 148.669 264.596 173.045 302.087" fill="#b7c2ae"/>
              <polygon points="170.734 302.087 120.559 302.087 94.984 266.276 147.45 266.276 170.734 302.087" fill="#dcdfd7"/>
              <rect x="120.63657" y="302.08744" width="52.40819" height="4.9724" fill="#b7c2ae"/>
            </g>
            <polygon points="173.045 307.06 208.625 290.653 208.625 286.869 173.045 302.087 173.045 307.06" fill="#b7c2ae"/>
          </g>
          <path d="M189.58869,211.03129c-8.5504,1.81522-6.7078,14.73919,6.27144,26.61872,12.9796,11.87921,16.60718,22.21877,6.48789,33.6584-5.30582,5.99746-29.84233,15.26492-30.76059,21.38156,0,0-1.32319,4.66282,8.559,0,9.88218-4.66249,6.9278-8.01927,10.68888-8.50844,6.45293-.83975,26.42261-11.13736,29.10937-19.58509C225.227,247.98925,205.24551,207.70724,189.58869,211.03129Z" fill="#dcdfd7"/>
          <path d="M188.63324,209.30347c-12.93859,4.53409-2.62,23.75461,11.65831,36.17066,0,0,8.78465,1.86894,16.11293-9.7188C216.40448,235.75533,202.84545,204.32313,188.63324,209.30347Z" fill="#60bd94"/>
          <path d="M167.5298,171.05568c3.1505,2.06028,2.66582,5.4533,2.66582,11.2699s2.54464,5.8166,3.63549,11.63319c1.09054,5.8166-9.93684,12.48154-2.545,19.99448,7.39217,7.51327,26.53927.63156,24.46341-10.89674-1.37119-7.61339-8.83551-7.46114-5.78863-15.79,3.78651-10.35228-2.88827-9.88758-6.70275-14.26084-2.09176-2.39816-5.30964-12.02606-11.05726-15.03734-6.60423-3.45976-16.59956-3.26015-24.13825,5.13736Z" fill="#0d632c"/>
        </g>
        <g>
          <path d="M123.92057,129.06015a30.5323,30.5323,0,1,0-5.27213,47.37668l11.15261,1.68268-1.68268-11.1523A30.52728,30.52728,0,0,0,123.92057,129.06015Z" fill="url(#r)"/>
          <text transform="translate(92.34912 167.40431)" font-size="42.31455" fill="#fff" font-family="Lato-Black, Lato" font-weight="800">?</text>
        </g>
        <g>
          <g>
            <path d="M437.52454,458.976s5.3624,24.46881,4.19145,29.44534c-1.171,4.97621-11.80611,10.46924-11.80611,10.46924s-6.03428.04355-9.40028,3.41781c-5.60495,5.61953,9.84591,8.62319,9.84591,8.62319s26.40831-11.68437,28.74512-23.91639c2.33681-12.23171-4.97208-30.08835-4.97208-30.08835Z" fill="#dcdfd7"/>
            <path d="M481.18976,407.56812c-24.58042,3.30529-49.48817,22.5471-43.66522,51.40792h19.82825Z" fill="#00853e"/>
          </g>
          <g>
            <path d="M537.592,458.976s-5.36235,24.46881-4.19177,29.44534c1.17095,4.97621,11.80611,10.46924,11.80611,10.46924s6.03432.04355,9.40032,3.41781c5.60523,5.61953-9.84562,8.62319-9.84562,8.62319s-26.40831-11.68437-28.74513-23.91639c-2.33681-12.23171,4.97177-30.08835,4.97177-30.08835Z" fill="#dcdfd7"/>
            <path d="M493.9268,407.56812c24.58037,3.30529,49.48812,22.5471,43.66517,51.40792H517.76341Z" fill="#00853e"/>
          </g>
          <g>
            <path d="M513.11871,524.37368c4.67585,6.59247,43.29011-27.76424,65.89348-22.59383,0,0,5.38846,62.66924-90.94172,62.66924s-90.94169-62.66924-90.94169-62.66924c22.60333-5.17041,61.2176,29.1863,65.89344,22.59383Z" fill="url(#s)"/>
            <path d="M483.56408,546.99517a59.57,59.57,0,0,1-16.36948-7.67188c-10.29983-6.83148-27.06912-22.28138-43.81552-29.66465l58.53056,47.9898c2.79991-.73391,21.04528-.644,29.29531-3.04116,21.54494-6.26095,49.78627-49.24211,49.78627-49.24211C544.90626,510.9491,508.81316,541.44556,483.56408,546.99517Z" fill="#383838" opacity="0.4" style="mix-blend-mode: multiply"/>
            <path d="M453.63716,532.92821c6.29559,5.79213,42.3817,34.76864,61.68868,24.58387,19.30729-10.18476,42.85244,6.88838,33.90541,6.88838H513.6368c-135.89736,4.23817-139.11174-57.45051-116.508-62.62061C397.12878,501.77985,413.13933,495.66766,453.63716,532.92821Z" fill="url(#t)"/>
            <path d="M482.08732,552.52538c-9.80495,3.53732-22.86146,3.28972-31.08416,1.971,0,0,3.66986,7.84478,27.24016,7.84478,4.22,0,9.58495-1.84446,15.53154-4.83794A97.32966,97.32966,0,0,1,482.08732,552.52538Z" fill="#383838" opacity="0.4" style="mix-blend-mode: multiply"/>
            <path d="M522.50378,532.92821c-6.2956,5.79213-42.38171,34.76864-61.68869,24.58387-19.30729-10.18476-42.85244,6.88838-33.90536,6.88838h35.5944c135.89736,4.23817,139.11174-57.45051,116.50806-62.62061C579.01219,501.77985,563.0016,495.66766,522.50378,532.92821Z" fill="url(#u)"/>
          </g>
          <path d="M488.07047,531.2735c20.66259,0,25.04824-6.89982,25.04824-6.89982s-1.91693-16.72574,8.443-57.08435c10.3599-40.3583-11.30164-60.38043-33.49121-60.38043S444.219,426.931,454.57894,467.28933c10.36022,40.35861,8.44328,57.08435,8.44328,57.08435S467.40756,531.2735,488.07047,531.2735Z" fill="#00853e"/>
          <path d="M513.6368,379.11669l-25.56633-14.908-25.04825,15.18546c9.19182,3.35964-1.81045,10.79122,5.71489,17.02864,3.02876,2.51036,5.66467,1.252,8.73284,1.252,2.956,0,4.60561,3.36537,10.60052,3.36537,4.88816,0,7.164-4.27091,10.60087-3.35806,2.91175.77333,5.7034,1.25105,8.73248-1.25931C514.92921,390.18539,503.986,383.97815,513.6368,379.11669Z" fill="#309c63"/>
          <path d="M495.715,397.02164a43.4879,43.4879,0,0,0-.85818,17.01943s-.79367,3.44641-7.29872,3.1184c-6.51332,0-7.13217-3.482-7.13217-3.482a44.03371,44.03371,0,0,0,0-17.041Z" fill="#dcdfd7"/>
          <g>
            <path d="M476.97221,384.40312c1.0829,3.56083.08963,6.92524-2.21858,7.51453-2.3082.58961-5.05722-1.81935-6.14016-5.38019s-.08964-6.92557,2.21857-7.51486S475.8893,380.84228,476.97221,384.40312Z" fill="#dcdfd7"/>
            <path d="M499.16873,384.40312c-1.08291,3.56083-.08964,6.92524,2.21857,7.51453,2.3082.58961,5.05726-1.81935,6.14016-5.38019s.08964-6.92557-2.21857-7.51486S500.25163,380.84228,499.16873,384.40312Z" fill="#dcdfd7"/>
            <ellipse cx="488.07047" cy="380.24186" rx="17.042" ry="20.79831" fill="#dcdfd7"/>
            <path d="M488.07047,343.5512c8.35969,0,7.984,7.91312,17.042,6.28988,5.3624-.96117,10.76039,6.15351,7.785,12.10679-5.5032,11.01117,4.72257,6.24378,4.27154,13.22179s-9.6155,6.12777-9.6155,6.12777c-.36235-1.51358-2.24464-2.27483-2.24464-2.27483l-1.218,8.31806s-2.69629-.54956-3.09392-2.64417c-.39731-2.0943,1.19-6.23711,1.4907-7.94268.48154-2.73-2.75986-1.26535-5.38178-1.63914-4.47179-.63728-7.65185-4.55283-12.32261-2.82279-9.688,3.58881-10.74827,1.37723-11.13,4.46193-.21232,1.71669,1.888,5.84838,1.4907,7.94268-.39763,2.09461-3.09392,2.64417-3.09392,2.64417l-1.218-8.31806s-1.88229.76125-2.24464,2.27483c0,0-9.16448.85024-9.6155-6.12777s9.91269-3.70609,3.358-14.12575c-3.04529-4.84113.07533-13.32192,8.69852-9.85484C479.56647,354.62213,479.71046,343.5512,488.07047,343.5512Z" fill="#309c63"/>
          </g>
          <g>
            <path d="M498.663,539.19266c0,1.477-4.74227,2.67436-10.59256,2.67436-5.85,0-10.59225-1.19733-10.59225-2.67436s4.74227-2.67436,10.59225-2.67436C493.92076,536.5183,498.663,537.71562,498.663,539.19266Z" fill="#383838"/>
            <path d="M488.07047,543.56909c9.21787,0,9.99819-2.00529,9.99819-2.00529L557.38334,507.113v-2.91752l-59.31468,34.45079s-.78032,2.0053-9.99819,2.0053c-9.2182,0-9.9982-2.0053-9.9982-2.0053l-59.31468-34.45079V507.113l59.31468,34.45079S478.85227,543.56909,488.07047,543.56909Z" fill="#3bae7b"/>
            <g>
              <path d="M420.18663,505.02539l8.21126-4.85543s59.77778,8.75287,59.67258,29.90526v6.80765s-7.176.485-9.9982,1.76341Z" fill="#a6b49b"/>
              <path d="M428.39789,500.17l-8.21126,4.85543,57.88564,33.62089c2.82217-1.2787,9.9982-1.76341,9.9982-1.76341C487.81079,516.21678,428.39789,500.17,428.39789,500.17Z" fill="#d4d8ce"/>
            </g>
            <g>
              <path d="M555.9543,505.02539,547.74305,500.17s-59.77779,8.75287-59.67258,29.90526v6.80765s7.176.485,9.99819,1.76341Z" fill="#a6b49b"/>
              <path d="M547.74305,500.17l8.21125,4.85543-57.88564,33.62089c-2.82216-1.2787-9.99819-1.76341-9.99819-1.76341C488.32983,516.21678,547.74305,500.17,547.74305,500.17Z" fill="#d4d8ce"/>
            </g>
          </g>
        </g>
        <g>
          <path d="M518.60252,295.65422a30.53222,30.53222,0,1,0-37.22813,29.7724l6.69608,9.0758,6.69608-9.0758A30.527,30.527,0,0,0,518.60252,295.65422Z" fill="url(#v)"/>
          <g>
            <path d="M497.54866,290.12241a9.4799,9.4799,0,0,0-18.82353-1.60545,9.38193,9.38193,0,0,0,2.6607,8.2815,8.11119,8.11119,0,0,1,2.44964,5.75621v.71706a2.06866,2.06866,0,0,0,2.06855,2.06855h4.33289a2.06866,2.06866,0,0,0,2.06855-2.06855v-.71483a7.63922,7.63922,0,0,1,2.27519-5.59A9.364,9.364,0,0,0,497.54866,290.12241Z" fill="#fff"/>
            <path d="M491.48668,306.619h-6.83239a1.02093,1.02093,0,1,0,0,2.04185h6.83239a1.02093,1.02093,0,1,0,0-2.04185Z" fill="#fff"/>
            <path d="M491.05378,309.93953h-5.96663a.8914.8914,0,1,0,0,1.7828h5.96663a.8914.8914,0,1,0,0-1.7828Z" fill="#fff"/>
          </g>
        </g>
      </g>
    </g>
  </g>
</svg>
